<svg width="4620" height="394"><defs id="SvgjsDefs3373"></defs><g id="SvgjsG3374" featurekey="root" fill="#ffffff"></g><g id="SvgjsG3375" featurekey="text1" fill="#4a8fe7" transform="matrix(34.84572754863349,0,0,34.84572754863349,-83.62974943986792,-316.8528951624838)"><path d="M4.44 11.780000000000001 l0 3.1 c0.9 -0.52 2.06 -0.6 3.26 -0.6 l0.92 0 c0.98 0 1.64 -0.18 1.64 -1.3 c0 -1.02 -0.8 -1.2 -1.64 -1.2 l-4.18 0 z M4.44 20.080000000000002 l-2.04 0 l0 -10.36 l6.58 0 c2 0 3.38 1.28 3.38 3.28 c0 2.04 -1.42 3.34 -3.74 3.34 l-0.92 0 c-1.9 0 -2.36 0.12 -3.26 0.6 l0 3.14 z M24.324 15.860000000000003 l0.64 1.08 c0.5 0.84 1.22 0.92 1.74 0.92 l0.72 0 l0 2.22 l-0.9 0 c-1.08 0 -2.06 -0.08 -3.02 -1.64 l-1.6 -2.6 l-0.14 0 c-1.62 0 -2.06 0.16 -2.9 0.6 l0 3.64 l-2.1 0 l0 -10.36 l6.68 0 c1.9 0 3.26 1.32 3.26 3.12 c0 1.58 -0.88 2.56 -2.38 3.02 z M21.764000000000003 13.780000000000001 l1.68 0 c0.62 0 1.16 -0.34 1.16 -1 c0 -0.92 -0.8 -1 -1.52 -1 l-4.22 0 l0 2.6 c0.8 -0.44 1.82 -0.6 2.9 -0.6 z M38.188 16.64 l0.28 0 l-2.02 -3.84 l-2.46 4.74 c0.66 -0.34 2.06 -0.9 4.2 -0.9 z M35.388000000000005 10.780000000000001 l-0.68 -1.3 l2.22 0 l5.6 10.6 l-2.26 0 l-0.82 -1.56 l-1.24 0 c-2.56 0 -5.22 1 -5.56 1.44 l-0.06 0.12 l-2.16 0 z M45.232000000000006 9.720000000000002 l2.58 0 l6.26 7.2 l0 -7.2 l2.06 0 l0 10.36 l-2.06 0 l-5.76 -6.74 l0 6.74 l-2.06 0 l0 -8.82 z M69.896 17.200000000000003 l1.2 1.72 c-1.14 0.98 -2.68 1.48 -4.26 1.48 c-3.14 0 -6.1 -2.04 -6.1 -5.54 c0 -3.52 3.02 -5.48 6.12 -5.48 c1.52 0 3.02 0.44 4.16 1.3 l-1.38 1.6 c-0.78 -0.54 -1.8 -0.82 -2.78 -0.82 c-2 0 -3.94 1.1 -3.94 3.44 s1.98 3.42 3.96 3.42 c1.08 0 2.22 -0.4 3.02 -1.12 z M77.54 20.080000000000002 l-2.04 0 l0 -10.36 l2.04 0 l0 10.36 z M91.08400000000002 10.680000000000001 l-1.38 1.6 c-0.8 -0.66 -1.88 -0.9 -3.08 -0.9 c-1 0 -2.1 0.52 -2.1 1.12 c0 0.62 0.24 1.04 2.26 1.04 c4.42 0 5.1 1.5 5.1 3.18 c0 2.48 -2.28 3.68 -5.24 3.68 c-1.8 0 -3.56 -0.86 -4.7 -2.2 l1.48 -1.5 c0.62 0.66 1.38 1.7 3.22 1.7 c1.88 0 3.2 -0.6 3.2 -1.68 c0 -0.94 -1.04 -1.14 -3.2 -1.14 c-2.48 0 -4.28 -0.82 -4.28 -3.08 c0 -1.88 1.98 -3.12 4.28 -3.12 c1.5 0 2.92 0.26 4.44 1.3 z M101.08800000000002 16.080000000000002 l-2.62 4 l-2.18 0 l0 -10.36 l2.18 0 l0 6.64 l4.78 -6.64 l2.64 0 l-3.42 4.66 l1.52 2.56 c0.62 0.86 1.22 0.92 1.74 0.92 l0.72 0 l0 2.22 l-0.9 0 c-1.08 0 -1.8 -0.14 -3.02 -1.64 z M115.87200000000001 20.400000000000002 l-0.04 0 c-2.88 0 -4.98 -1.34 -4.98 -4.38 l0 -6.3 l2.06 0 l0 6.3 c0 1.76 1.18 2.3 2.94 2.3 s2.94 -0.54 2.94 -2.3 l0 -6.3 l2.06 0 l0 6.3 c0 3.04 -2.1 4.38 -4.98 4.38 z M134.19600000000003 10.680000000000001 l-1.38 1.6 c-0.8 -0.66 -1.88 -0.9 -3.08 -0.9 c-1 0 -2.1 0.52 -2.1 1.12 c0 0.62 0.24 1.04 2.26 1.04 c4.42 0 5.1 1.5 5.1 3.18 c0 2.48 -2.28 3.68 -5.24 3.68 c-1.8 0 -3.56 -0.86 -4.7 -2.2 l1.48 -1.5 c0.62 0.66 1.38 1.7 3.22 1.7 c1.88 0 3.2 -0.6 3.2 -1.68 c0 -0.94 -1.04 -1.14 -3.2 -1.14 c-2.48 0 -4.28 -0.82 -4.28 -3.08 c0 -1.88 1.98 -3.12 4.28 -3.12 c1.5 0 2.92 0.26 4.44 1.3 z"></path></g></svg>
